<mxfile host="app.diagrams.net" modified="2020-05-19T08:11:19.000Z" agent="5.0 (Windows)" etag="2rX0wzoYQM-eeQjcKBq5" version="13.1.2" type="github">
  <diagram id="SshQMSC1I4w36vEbC7pe" name="Page-1">
    <mxGraphModel dx="1231" dy="1632" grid="0" gridSize="10" guides="1" tooltips="1" connect="1" arrows="1" fold="1" page="1" pageScale="1" pageWidth="1169" pageHeight="826" math="0" shadow="0">
      <root>
        <mxCell id="0" />
        <mxCell id="1" parent="0" />
        <mxCell id="BQvFcFdzDr9af9RYS4z4-1" value="&lt;div&gt;7 Steps To Create A &lt;br&gt;&lt;/div&gt;&lt;div&gt;Process Flowchart&lt;/div&gt;" style="ellipse;whiteSpace=wrap;html=1;align=center;newEdgeStyle={&quot;edgeStyle&quot;:&quot;entityRelationEdgeStyle&quot;,&quot;startArrow&quot;:&quot;none&quot;,&quot;endArrow&quot;:&quot;none&quot;,&quot;segment&quot;:10,&quot;curved&quot;:1};treeFolding=1;treeMoving=1;fontSize=20;strokeWidth=18;fontStyle=1" vertex="1" parent="1">
          <mxGeometry x="459" y="163" width="307" height="172" as="geometry" />
        </mxCell>
        <mxCell id="BQvFcFdzDr9af9RYS4z4-24" value="1.GOAL" style="whiteSpace=wrap;html=1;shape=partialRectangle;top=0;left=0;bottom=1;right=0;points=[[0,1],[1,1]];fillColor=none;align=center;verticalAlign=bottom;routingCenterY=0.5;snapToPoint=1;recursiveResize=0;autosize=1;treeFolding=1;treeMoving=1;newEdgeStyle={&quot;edgeStyle&quot;:&quot;entityRelationEdgeStyle&quot;,&quot;startArrow&quot;:&quot;none&quot;,&quot;endArrow&quot;:&quot;none&quot;,&quot;segment&quot;:10,&quot;curved&quot;:1};strokeWidth=20;fontSize=28;" vertex="1" parent="1">
          <mxGeometry x="837.9999999999999" y="136" width="128" height="34" as="geometry" />
        </mxCell>
        <mxCell id="BQvFcFdzDr9af9RYS4z4-25" value="" style="edgeStyle=entityRelationEdgeStyle;startArrow=none;endArrow=none;segment=10;curved=1;strokeWidth=20;fontSize=28;exitX=1;exitY=0.5;exitDx=0;exitDy=0;" edge="1" target="BQvFcFdzDr9af9RYS4z4-24" parent="1" source="BQvFcFdzDr9af9RYS4z4-1">
          <mxGeometry relative="1" as="geometry">
            <mxPoint x="828" y="449" as="sourcePoint" />
          </mxGeometry>
        </mxCell>
        <mxCell id="BQvFcFdzDr9af9RYS4z4-30" value="UNDERSTAND" style="whiteSpace=wrap;html=1;shape=partialRectangle;top=0;left=0;bottom=1;right=0;points=[[0,1],[1,1]];fillColor=none;align=center;verticalAlign=bottom;routingCenterY=0.5;snapToPoint=1;recursiveResize=0;autosize=1;treeFolding=1;treeMoving=1;newEdgeStyle={&quot;edgeStyle&quot;:&quot;entityRelationEdgeStyle&quot;,&quot;startArrow&quot;:&quot;none&quot;,&quot;endArrow&quot;:&quot;none&quot;,&quot;segment&quot;:10,&quot;curved&quot;:1};strokeWidth=5;fontSize=20;fontStyle=1" vertex="1" parent="1">
          <mxGeometry x="1123.0000000000007" width="166" height="28" as="geometry" />
        </mxCell>
        <mxCell id="BQvFcFdzDr9af9RYS4z4-31" value="" style="edgeStyle=entityRelationEdgeStyle;startArrow=none;endArrow=none;segment=10;curved=1;strokeWidth=5;fontSize=28;exitX=1;exitY=1;exitDx=0;exitDy=0;" edge="1" target="BQvFcFdzDr9af9RYS4z4-30" parent="1" source="BQvFcFdzDr9af9RYS4z4-24">
          <mxGeometry relative="1" as="geometry">
            <mxPoint x="999.9999999999995" y="457.5" as="sourcePoint" />
          </mxGeometry>
        </mxCell>
        <mxCell id="BQvFcFdzDr9af9RYS4z4-32" value="DOCUMENTATION" style="whiteSpace=wrap;html=1;shape=partialRectangle;top=0;left=0;bottom=1;right=0;points=[[0,1],[1,1]];fillColor=none;align=center;verticalAlign=bottom;routingCenterY=0.5;snapToPoint=1;recursiveResize=0;autosize=1;treeFolding=1;treeMoving=1;newEdgeStyle={&quot;edgeStyle&quot;:&quot;entityRelationEdgeStyle&quot;,&quot;startArrow&quot;:&quot;none&quot;,&quot;endArrow&quot;:&quot;none&quot;,&quot;segment&quot;:10,&quot;curved&quot;:1};strokeWidth=5;fontSize=20;fontStyle=1" vertex="1" parent="1">
          <mxGeometry x="1123.0000000000002" y="95" width="202" height="28" as="geometry" />
        </mxCell>
        <mxCell id="BQvFcFdzDr9af9RYS4z4-33" value="" style="edgeStyle=entityRelationEdgeStyle;startArrow=none;endArrow=none;segment=10;curved=1;strokeWidth=5;fontSize=28;exitX=1;exitY=1;exitDx=0;exitDy=0;" edge="1" target="BQvFcFdzDr9af9RYS4z4-32" parent="1" source="BQvFcFdzDr9af9RYS4z4-24">
          <mxGeometry relative="1" as="geometry">
            <mxPoint x="1002.9999999999995" y="503" as="sourcePoint" />
          </mxGeometry>
        </mxCell>
        <mxCell id="BQvFcFdzDr9af9RYS4z4-34" value="VISUALIZATION" style="whiteSpace=wrap;html=1;shape=partialRectangle;top=0;left=0;bottom=1;right=0;points=[[0,1],[1,1]];fillColor=none;align=center;verticalAlign=bottom;routingCenterY=0.5;snapToPoint=1;recursiveResize=0;autosize=1;treeFolding=1;treeMoving=1;newEdgeStyle={&quot;edgeStyle&quot;:&quot;entityRelationEdgeStyle&quot;,&quot;startArrow&quot;:&quot;none&quot;,&quot;endArrow&quot;:&quot;none&quot;,&quot;segment&quot;:10,&quot;curved&quot;:1};strokeWidth=5;fontSize=20;fontStyle=1" vertex="1" parent="1">
          <mxGeometry x="1123.0000000000005" y="164" width="179" height="28" as="geometry" />
        </mxCell>
        <mxCell id="BQvFcFdzDr9af9RYS4z4-35" value="" style="edgeStyle=entityRelationEdgeStyle;startArrow=none;endArrow=none;segment=10;curved=1;strokeWidth=5;fontSize=28;exitX=1;exitY=1;exitDx=0;exitDy=0;" edge="1" target="BQvFcFdzDr9af9RYS4z4-34" parent="1" source="BQvFcFdzDr9af9RYS4z4-24">
          <mxGeometry relative="1" as="geometry">
            <mxPoint x="1051" y="607" as="sourcePoint" />
          </mxGeometry>
        </mxCell>
        <mxCell id="BQvFcFdzDr9af9RYS4z4-38" value="IDENTIFY" style="whiteSpace=wrap;html=1;shape=partialRectangle;top=0;left=0;bottom=1;right=0;points=[[0,1],[1,1]];fillColor=none;align=center;verticalAlign=bottom;routingCenterY=0.5;snapToPoint=1;recursiveResize=0;autosize=1;treeFolding=1;treeMoving=1;newEdgeStyle={&quot;edgeStyle&quot;:&quot;entityRelationEdgeStyle&quot;,&quot;startArrow&quot;:&quot;none&quot;,&quot;endArrow&quot;:&quot;none&quot;,&quot;segment&quot;:10,&quot;curved&quot;:1};strokeWidth=5;fontSize=20;fontStyle=1" vertex="1" parent="1">
          <mxGeometry x="1123.0000000000005" y="233" width="118" height="28" as="geometry" />
        </mxCell>
        <mxCell id="BQvFcFdzDr9af9RYS4z4-39" value="" style="edgeStyle=entityRelationEdgeStyle;startArrow=none;endArrow=none;segment=10;curved=1;strokeWidth=5;fontSize=28;exitX=1;exitY=1;exitDx=0;exitDy=0;" edge="1" target="BQvFcFdzDr9af9RYS4z4-38" parent="1" source="BQvFcFdzDr9af9RYS4z4-24">
          <mxGeometry relative="1" as="geometry">
            <mxPoint x="1064" y="600" as="sourcePoint" />
          </mxGeometry>
        </mxCell>
        <mxCell id="BQvFcFdzDr9af9RYS4z4-40" value="GAPS" style="whiteSpace=wrap;html=1;shape=partialRectangle;top=0;left=0;bottom=1;right=0;points=[[0,1],[1,1]];fillColor=none;align=center;verticalAlign=bottom;routingCenterY=0.5;snapToPoint=1;recursiveResize=0;autosize=1;treeFolding=1;treeMoving=1;newEdgeStyle={&quot;edgeStyle&quot;:&quot;entityRelationEdgeStyle&quot;,&quot;startArrow&quot;:&quot;none&quot;,&quot;endArrow&quot;:&quot;none&quot;,&quot;segment&quot;:10,&quot;curved&quot;:1};strokeWidth=5;fontSize=20;fontStyle=1" vertex="1" parent="1">
          <mxGeometry x="1344.0000000000002" y="203" width="84" height="28" as="geometry" />
        </mxCell>
        <mxCell id="BQvFcFdzDr9af9RYS4z4-41" value="" style="edgeStyle=entityRelationEdgeStyle;startArrow=none;endArrow=none;segment=10;curved=1;strokeWidth=5;fontSize=28;exitX=1;exitY=1;exitDx=0;exitDy=0;" edge="1" target="BQvFcFdzDr9af9RYS4z4-40" parent="1" source="BQvFcFdzDr9af9RYS4z4-38">
          <mxGeometry relative="1" as="geometry">
            <mxPoint x="1294" y="620" as="sourcePoint" />
          </mxGeometry>
        </mxCell>
        <mxCell id="BQvFcFdzDr9af9RYS4z4-42" value="INEFFICIENCIES" style="whiteSpace=wrap;html=1;shape=partialRectangle;top=0;left=0;bottom=1;right=0;points=[[0,1],[1,1]];fillColor=none;align=center;verticalAlign=bottom;routingCenterY=0.5;snapToPoint=1;recursiveResize=0;autosize=1;treeFolding=1;treeMoving=1;newEdgeStyle={&quot;edgeStyle&quot;:&quot;entityRelationEdgeStyle&quot;,&quot;startArrow&quot;:&quot;none&quot;,&quot;endArrow&quot;:&quot;none&quot;,&quot;segment&quot;:10,&quot;curved&quot;:1};strokeWidth=5;fontSize=20;fontStyle=1" vertex="1" parent="1">
          <mxGeometry x="1343.9999999999998" y="261" width="185" height="28" as="geometry" />
        </mxCell>
        <mxCell id="BQvFcFdzDr9af9RYS4z4-43" value="" style="edgeStyle=entityRelationEdgeStyle;startArrow=none;endArrow=none;segment=10;curved=1;strokeWidth=5;fontSize=28;exitX=1;exitY=1;exitDx=0;exitDy=0;" edge="1" target="BQvFcFdzDr9af9RYS4z4-42" parent="1" source="BQvFcFdzDr9af9RYS4z4-38">
          <mxGeometry relative="1" as="geometry">
            <mxPoint x="1211.9999999999995" y="605" as="sourcePoint" />
          </mxGeometry>
        </mxCell>
        <mxCell id="BQvFcFdzDr9af9RYS4z4-44" value="2. SCOPE" style="whiteSpace=wrap;html=1;shape=partialRectangle;top=0;left=0;bottom=1;right=0;points=[[0,1],[1,1]];fillColor=none;align=center;verticalAlign=bottom;routingCenterY=0.5;snapToPoint=1;recursiveResize=0;autosize=1;treeFolding=1;treeMoving=1;newEdgeStyle={&quot;edgeStyle&quot;:&quot;entityRelationEdgeStyle&quot;,&quot;startArrow&quot;:&quot;none&quot;,&quot;endArrow&quot;:&quot;none&quot;,&quot;segment&quot;:10,&quot;curved&quot;:1};strokeWidth=20;fontSize=28;" vertex="1" parent="1">
          <mxGeometry x="838" y="314" width="180" height="34" as="geometry" />
        </mxCell>
        <mxCell id="BQvFcFdzDr9af9RYS4z4-45" value="" style="edgeStyle=entityRelationEdgeStyle;startArrow=none;endArrow=none;segment=10;curved=1;strokeWidth=20;fontSize=28;exitX=1;exitY=1;exitDx=0;exitDy=0;" edge="1" target="BQvFcFdzDr9af9RYS4z4-44" parent="1" source="BQvFcFdzDr9af9RYS4z4-1">
          <mxGeometry relative="1" as="geometry">
            <mxPoint x="742" y="408" as="sourcePoint" />
          </mxGeometry>
        </mxCell>
        <mxCell id="BQvFcFdzDr9af9RYS4z4-46" value="PROCESS" style="whiteSpace=wrap;html=1;shape=partialRectangle;top=0;left=0;bottom=1;right=0;points=[[0,1],[1,1]];fillColor=none;align=center;verticalAlign=bottom;routingCenterY=0.5;snapToPoint=1;recursiveResize=0;autosize=1;treeFolding=1;treeMoving=1;newEdgeStyle={&quot;edgeStyle&quot;:&quot;entityRelationEdgeStyle&quot;,&quot;startArrow&quot;:&quot;none&quot;,&quot;endArrow&quot;:&quot;none&quot;,&quot;segment&quot;:10,&quot;curved&quot;:1};strokeWidth=5;fontSize=20;fontStyle=1" vertex="1" parent="1">
          <mxGeometry x="1064" y="353" width="125" height="28" as="geometry" />
        </mxCell>
        <mxCell id="BQvFcFdzDr9af9RYS4z4-47" value="" style="edgeStyle=entityRelationEdgeStyle;startArrow=none;endArrow=none;segment=10;curved=1;strokeWidth=5;fontSize=28;exitX=1;exitY=1;exitDx=0;exitDy=0;" edge="1" target="BQvFcFdzDr9af9RYS4z4-46" parent="1" source="BQvFcFdzDr9af9RYS4z4-44">
          <mxGeometry relative="1" as="geometry">
            <mxPoint x="1049" y="560" as="sourcePoint" />
          </mxGeometry>
        </mxCell>
        <mxCell id="BQvFcFdzDr9af9RYS4z4-48" value="IDENTIFY" style="whiteSpace=wrap;html=1;shape=partialRectangle;top=0;left=0;bottom=1;right=0;points=[[0,1],[1,1]];fillColor=none;align=center;verticalAlign=bottom;routingCenterY=0.5;snapToPoint=1;recursiveResize=0;autosize=1;treeFolding=1;treeMoving=1;newEdgeStyle={&quot;edgeStyle&quot;:&quot;entityRelationEdgeStyle&quot;,&quot;startArrow&quot;:&quot;none&quot;,&quot;endArrow&quot;:&quot;none&quot;,&quot;segment&quot;:10,&quot;curved&quot;:1};strokeWidth=5;fontSize=20;fontStyle=1" vertex="1" parent="1">
          <mxGeometry x="1328.0000000000002" y="344" width="118" height="28" as="geometry" />
        </mxCell>
        <mxCell id="BQvFcFdzDr9af9RYS4z4-49" value="" style="edgeStyle=entityRelationEdgeStyle;startArrow=none;endArrow=none;segment=10;curved=1;strokeWidth=5;fontSize=28;exitX=1;exitY=1;exitDx=0;exitDy=0;" edge="1" target="BQvFcFdzDr9af9RYS4z4-48" parent="1" source="BQvFcFdzDr9af9RYS4z4-46">
          <mxGeometry relative="1" as="geometry">
            <mxPoint x="1292" y="611" as="sourcePoint" />
          </mxGeometry>
        </mxCell>
        <mxCell id="BQvFcFdzDr9af9RYS4z4-50" value="FOCUS" style="whiteSpace=wrap;html=1;shape=partialRectangle;top=0;left=0;bottom=1;right=0;points=[[0,1],[1,1]];fillColor=none;align=center;verticalAlign=bottom;routingCenterY=0.5;snapToPoint=1;recursiveResize=0;autosize=1;treeFolding=1;treeMoving=1;newEdgeStyle={&quot;edgeStyle&quot;:&quot;entityRelationEdgeStyle&quot;,&quot;startArrow&quot;:&quot;none&quot;,&quot;endArrow&quot;:&quot;none&quot;,&quot;segment&quot;:10,&quot;curved&quot;:1};strokeWidth=5;fontSize=20;fontStyle=1" vertex="1" parent="1">
          <mxGeometry x="1328" y="421" width="97" height="28" as="geometry" />
        </mxCell>
        <mxCell id="BQvFcFdzDr9af9RYS4z4-51" value="" style="edgeStyle=entityRelationEdgeStyle;startArrow=none;endArrow=none;segment=10;curved=1;strokeWidth=5;fontSize=28;exitX=1;exitY=1;exitDx=0;exitDy=0;" edge="1" target="BQvFcFdzDr9af9RYS4z4-50" parent="1" source="BQvFcFdzDr9af9RYS4z4-46">
          <mxGeometry relative="1" as="geometry">
            <mxPoint x="1303" y="633" as="sourcePoint" />
          </mxGeometry>
        </mxCell>
        <mxCell id="BQvFcFdzDr9af9RYS4z4-54" value="DEFINE" style="whiteSpace=wrap;html=1;shape=partialRectangle;top=0;left=0;bottom=1;right=0;points=[[0,1],[1,1]];fillColor=none;align=center;verticalAlign=bottom;routingCenterY=0.5;snapToPoint=1;recursiveResize=0;autosize=1;treeFolding=1;treeMoving=1;newEdgeStyle={&quot;edgeStyle&quot;:&quot;entityRelationEdgeStyle&quot;,&quot;startArrow&quot;:&quot;none&quot;,&quot;endArrow&quot;:&quot;none&quot;,&quot;segment&quot;:10,&quot;curved&quot;:1};strokeWidth=5;fontSize=20;fontStyle=1" vertex="1" parent="1">
          <mxGeometry x="1064.0000000000002" y="434" width="100" height="28" as="geometry" />
        </mxCell>
        <mxCell id="BQvFcFdzDr9af9RYS4z4-55" value="" style="edgeStyle=entityRelationEdgeStyle;startArrow=none;endArrow=none;segment=10;curved=1;strokeWidth=5;fontSize=28;exitX=1;exitY=1;exitDx=0;exitDy=0;" edge="1" target="BQvFcFdzDr9af9RYS4z4-54" parent="1" source="BQvFcFdzDr9af9RYS4z4-44">
          <mxGeometry relative="1" as="geometry">
            <mxPoint x="1047" y="633" as="sourcePoint" />
          </mxGeometry>
        </mxCell>
        <mxCell id="BQvFcFdzDr9af9RYS4z4-56" value="BOUNDARIES" style="whiteSpace=wrap;html=1;shape=partialRectangle;top=0;left=0;bottom=1;right=0;points=[[0,1],[1,1]];fillColor=none;align=center;verticalAlign=bottom;routingCenterY=0.5;snapToPoint=1;recursiveResize=0;autosize=1;treeFolding=1;treeMoving=1;newEdgeStyle={&quot;edgeStyle&quot;:&quot;entityRelationEdgeStyle&quot;,&quot;startArrow&quot;:&quot;none&quot;,&quot;endArrow&quot;:&quot;none&quot;,&quot;segment&quot;:10,&quot;curved&quot;:1};strokeWidth=5;fontSize=20;fontStyle=1" vertex="1" parent="1">
          <mxGeometry x="1335" y="496" width="161" height="28" as="geometry" />
        </mxCell>
        <mxCell id="BQvFcFdzDr9af9RYS4z4-57" value="" style="edgeStyle=entityRelationEdgeStyle;startArrow=none;endArrow=none;segment=10;curved=1;strokeWidth=5;fontSize=28;exitX=1;exitY=1;exitDx=0;exitDy=0;" edge="1" target="BQvFcFdzDr9af9RYS4z4-56" parent="1" source="BQvFcFdzDr9af9RYS4z4-54">
          <mxGeometry relative="1" as="geometry">
            <mxPoint x="1221" y="706" as="sourcePoint" />
          </mxGeometry>
        </mxCell>
        <mxCell id="BQvFcFdzDr9af9RYS4z4-58" value="MEET" style="whiteSpace=wrap;html=1;shape=partialRectangle;top=0;left=0;bottom=1;right=0;points=[[0,1],[1,1]];fillColor=none;align=center;verticalAlign=bottom;routingCenterY=0.5;snapToPoint=1;recursiveResize=0;autosize=1;treeFolding=1;treeMoving=1;newEdgeStyle={&quot;edgeStyle&quot;:&quot;entityRelationEdgeStyle&quot;,&quot;startArrow&quot;:&quot;none&quot;,&quot;endArrow&quot;:&quot;none&quot;,&quot;segment&quot;:10,&quot;curved&quot;:1};strokeWidth=5;fontSize=20;fontStyle=1" vertex="1" parent="1">
          <mxGeometry x="1064" y="502" width="83" height="28" as="geometry" />
        </mxCell>
        <mxCell id="BQvFcFdzDr9af9RYS4z4-59" value="" style="edgeStyle=entityRelationEdgeStyle;startArrow=none;endArrow=none;segment=10;curved=1;strokeWidth=5;fontSize=28;exitX=1;exitY=1;exitDx=0;exitDy=0;" edge="1" target="BQvFcFdzDr9af9RYS4z4-58" parent="1" source="BQvFcFdzDr9af9RYS4z4-44">
          <mxGeometry relative="1" as="geometry">
            <mxPoint x="1049" y="726" as="sourcePoint" />
          </mxGeometry>
        </mxCell>
        <mxCell id="BQvFcFdzDr9af9RYS4z4-61" value="3. BRAINSTORM" style="whiteSpace=wrap;html=1;shape=partialRectangle;top=0;left=0;bottom=1;right=0;points=[[0,1],[1,1]];fillColor=none;align=center;verticalAlign=bottom;routingCenterY=0.5;snapToPoint=1;recursiveResize=0;autosize=1;treeFolding=1;treeMoving=1;newEdgeStyle={&quot;edgeStyle&quot;:&quot;entityRelationEdgeStyle&quot;,&quot;startArrow&quot;:&quot;none&quot;,&quot;endArrow&quot;:&quot;none&quot;,&quot;segment&quot;:10,&quot;curved&quot;:1};strokeWidth=20;fontSize=28;" vertex="1" parent="1">
          <mxGeometry x="809" y="556" width="244" height="34" as="geometry" />
        </mxCell>
        <mxCell id="BQvFcFdzDr9af9RYS4z4-62" value="" style="edgeStyle=entityRelationEdgeStyle;startArrow=none;endArrow=none;segment=10;curved=1;strokeWidth=20;fontSize=28;exitX=0.5;exitY=1;exitDx=0;exitDy=0;" edge="1" target="BQvFcFdzDr9af9RYS4z4-61" parent="1" source="BQvFcFdzDr9af9RYS4z4-1">
          <mxGeometry relative="1" as="geometry">
            <mxPoint x="641" y="629" as="sourcePoint" />
          </mxGeometry>
        </mxCell>
        <mxCell id="BQvFcFdzDr9af9RYS4z4-63" value="TASKS" style="whiteSpace=wrap;html=1;shape=partialRectangle;top=0;left=0;bottom=1;right=0;points=[[0,1],[1,1]];fillColor=none;align=center;verticalAlign=bottom;routingCenterY=0.5;snapToPoint=1;recursiveResize=0;autosize=1;treeFolding=1;treeMoving=1;newEdgeStyle={&quot;edgeStyle&quot;:&quot;entityRelationEdgeStyle&quot;,&quot;startArrow&quot;:&quot;none&quot;,&quot;endArrow&quot;:&quot;none&quot;,&quot;segment&quot;:10,&quot;curved&quot;:1};strokeWidth=5;fontSize=20;fontStyle=1" vertex="1" parent="1">
          <mxGeometry x="1111.9999999999998" y="573" width="93" height="28" as="geometry" />
        </mxCell>
        <mxCell id="BQvFcFdzDr9af9RYS4z4-64" value="" style="edgeStyle=entityRelationEdgeStyle;startArrow=none;endArrow=none;segment=10;curved=1;strokeWidth=5;fontSize=28;exitX=1;exitY=1;exitDx=0;exitDy=0;" edge="1" target="BQvFcFdzDr9af9RYS4z4-63" parent="1" source="BQvFcFdzDr9af9RYS4z4-61">
          <mxGeometry relative="1" as="geometry">
            <mxPoint x="1021" y="759" as="sourcePoint" />
          </mxGeometry>
        </mxCell>
        <mxCell id="BQvFcFdzDr9af9RYS4z4-65" value="MEET" style="whiteSpace=wrap;html=1;shape=partialRectangle;top=0;left=0;bottom=1;right=0;points=[[0,1],[1,1]];fillColor=none;align=center;verticalAlign=bottom;routingCenterY=0.5;snapToPoint=1;recursiveResize=0;autosize=1;treeFolding=1;treeMoving=1;newEdgeStyle={&quot;edgeStyle&quot;:&quot;entityRelationEdgeStyle&quot;,&quot;startArrow&quot;:&quot;none&quot;,&quot;endArrow&quot;:&quot;none&quot;,&quot;segment&quot;:10,&quot;curved&quot;:1};strokeWidth=5;fontSize=20;fontStyle=1" vertex="1" parent="1">
          <mxGeometry x="1111" y="630" width="83" height="28" as="geometry" />
        </mxCell>
        <mxCell id="BQvFcFdzDr9af9RYS4z4-66" value="" style="edgeStyle=entityRelationEdgeStyle;startArrow=none;endArrow=none;segment=10;curved=1;strokeWidth=5;fontSize=28;exitX=1;exitY=1;exitDx=0;exitDy=0;" edge="1" target="BQvFcFdzDr9af9RYS4z4-65" parent="1" source="BQvFcFdzDr9af9RYS4z4-61">
          <mxGeometry relative="1" as="geometry">
            <mxPoint x="992" y="752" as="sourcePoint" />
          </mxGeometry>
        </mxCell>
        <mxCell id="BQvFcFdzDr9af9RYS4z4-67" value="USERS" style="whiteSpace=wrap;html=1;shape=partialRectangle;top=0;left=0;bottom=1;right=0;points=[[0,1],[1,1]];fillColor=none;align=center;verticalAlign=bottom;routingCenterY=0.5;snapToPoint=1;recursiveResize=0;autosize=1;treeFolding=1;treeMoving=1;newEdgeStyle={&quot;edgeStyle&quot;:&quot;entityRelationEdgeStyle&quot;,&quot;startArrow&quot;:&quot;none&quot;,&quot;endArrow&quot;:&quot;none&quot;,&quot;segment&quot;:10,&quot;curved&quot;:1};strokeWidth=5;fontSize=20;fontStyle=1" vertex="1" parent="1">
          <mxGeometry x="1321.9999999999998" y="568" width="96" height="28" as="geometry" />
        </mxCell>
        <mxCell id="BQvFcFdzDr9af9RYS4z4-68" value="" style="edgeStyle=entityRelationEdgeStyle;startArrow=none;endArrow=none;segment=10;curved=1;strokeWidth=5;fontSize=28;exitX=1;exitY=1;exitDx=0;exitDy=0;" edge="1" target="BQvFcFdzDr9af9RYS4z4-67" parent="1" source="BQvFcFdzDr9af9RYS4z4-65">
          <mxGeometry relative="1" as="geometry">
            <mxPoint x="1206" y="808" as="sourcePoint" />
          </mxGeometry>
        </mxCell>
        <mxCell id="BQvFcFdzDr9af9RYS4z4-69" value="&lt;strike style=&quot;font-size: 20px;&quot;&gt;MANAGEMENT&lt;/strike&gt;" style="whiteSpace=wrap;html=1;shape=partialRectangle;top=0;left=0;bottom=1;right=0;points=[[0,1],[1,1]];fillColor=none;align=center;verticalAlign=bottom;routingCenterY=0.5;snapToPoint=1;recursiveResize=0;autosize=1;treeFolding=1;treeMoving=1;newEdgeStyle={&quot;edgeStyle&quot;:&quot;entityRelationEdgeStyle&quot;,&quot;startArrow&quot;:&quot;none&quot;,&quot;endArrow&quot;:&quot;none&quot;,&quot;segment&quot;:10,&quot;curved&quot;:1};strokeWidth=5;fontSize=20;fontStyle=1" vertex="1" parent="1">
          <mxGeometry x="1336" y="647" width="173" height="28" as="geometry" />
        </mxCell>
        <mxCell id="BQvFcFdzDr9af9RYS4z4-70" value="" style="edgeStyle=entityRelationEdgeStyle;startArrow=none;endArrow=none;segment=10;curved=1;strokeWidth=5;fontSize=28;exitX=1;exitY=1;exitDx=0;exitDy=0;" edge="1" target="BQvFcFdzDr9af9RYS4z4-69" parent="1" source="BQvFcFdzDr9af9RYS4z4-65">
          <mxGeometry relative="1" as="geometry">
            <mxPoint x="1175" y="908" as="sourcePoint" />
          </mxGeometry>
        </mxCell>
        <mxCell id="BQvFcFdzDr9af9RYS4z4-74" value="IS" style="whiteSpace=wrap;html=1;shape=partialRectangle;top=0;left=0;bottom=1;right=0;points=[[0,1],[1,1]];fillColor=none;align=center;verticalAlign=bottom;routingCenterY=0.5;snapToPoint=1;recursiveResize=0;autosize=1;treeFolding=1;treeMoving=1;newEdgeStyle={&quot;edgeStyle&quot;:&quot;entityRelationEdgeStyle&quot;,&quot;startArrow&quot;:&quot;none&quot;,&quot;endArrow&quot;:&quot;none&quot;,&quot;segment&quot;:10,&quot;curved&quot;:1};strokeWidth=5;fontSize=20;fontStyle=1" vertex="1" parent="1">
          <mxGeometry x="1490" y="553" width="46" height="28" as="geometry" />
        </mxCell>
        <mxCell id="BQvFcFdzDr9af9RYS4z4-75" value="" style="edgeStyle=entityRelationEdgeStyle;startArrow=none;endArrow=none;segment=10;curved=1;strokeWidth=5;fontSize=28;exitX=1;exitY=1;exitDx=0;exitDy=0;" edge="1" target="BQvFcFdzDr9af9RYS4z4-74" parent="1" source="BQvFcFdzDr9af9RYS4z4-67">
          <mxGeometry relative="1" as="geometry">
            <mxPoint x="1320" y="938.9999999999998" as="sourcePoint" />
          </mxGeometry>
        </mxCell>
        <mxCell id="BQvFcFdzDr9af9RYS4z4-76" value="SHOULD" style="whiteSpace=wrap;html=1;shape=partialRectangle;top=0;left=0;bottom=1;right=0;points=[[0,1],[1,1]];fillColor=none;align=center;verticalAlign=bottom;routingCenterY=0.5;snapToPoint=1;recursiveResize=0;autosize=1;treeFolding=1;treeMoving=1;newEdgeStyle={&quot;edgeStyle&quot;:&quot;entityRelationEdgeStyle&quot;,&quot;startArrow&quot;:&quot;none&quot;,&quot;endArrow&quot;:&quot;none&quot;,&quot;segment&quot;:10,&quot;curved&quot;:1};strokeWidth=5;fontSize=20;fontStyle=1" vertex="1" parent="1">
          <mxGeometry x="1546" y="641" width="111" height="28" as="geometry" />
        </mxCell>
        <mxCell id="BQvFcFdzDr9af9RYS4z4-77" value="" style="edgeStyle=entityRelationEdgeStyle;startArrow=none;endArrow=none;segment=10;curved=1;strokeWidth=5;fontSize=28;exitX=1;exitY=1;exitDx=0;exitDy=0;" edge="1" target="BQvFcFdzDr9af9RYS4z4-76" parent="1" source="BQvFcFdzDr9af9RYS4z4-69">
          <mxGeometry relative="1" as="geometry">
            <mxPoint x="1481" y="872" as="sourcePoint" />
          </mxGeometry>
        </mxCell>
        <mxCell id="BQvFcFdzDr9af9RYS4z4-78" value="STICKY" style="whiteSpace=wrap;html=1;shape=partialRectangle;top=0;left=0;bottom=1;right=0;points=[[0,1],[1,1]];fillColor=none;align=center;verticalAlign=bottom;routingCenterY=0.5;snapToPoint=1;recursiveResize=0;autosize=1;treeFolding=1;treeMoving=1;newEdgeStyle={&quot;edgeStyle&quot;:&quot;entityRelationEdgeStyle&quot;,&quot;startArrow&quot;:&quot;none&quot;,&quot;endArrow&quot;:&quot;none&quot;,&quot;segment&quot;:10,&quot;curved&quot;:1};strokeWidth=5;fontSize=20;fontStyle=1" vertex="1" parent="1">
          <mxGeometry x="1114.9999999999998" y="714" width="100" height="28" as="geometry" />
        </mxCell>
        <mxCell id="BQvFcFdzDr9af9RYS4z4-79" value="" style="edgeStyle=entityRelationEdgeStyle;startArrow=none;endArrow=none;segment=10;curved=1;strokeWidth=5;fontSize=28;exitX=1;exitY=1;exitDx=0;exitDy=0;" edge="1" target="BQvFcFdzDr9af9RYS4z4-78" parent="1" source="BQvFcFdzDr9af9RYS4z4-61">
          <mxGeometry relative="1" as="geometry">
            <mxPoint x="1002" y="914" as="sourcePoint" />
          </mxGeometry>
        </mxCell>
        <mxCell id="BQvFcFdzDr9af9RYS4z4-80" value="NOTES" style="whiteSpace=wrap;html=1;shape=partialRectangle;top=0;left=0;bottom=1;right=0;points=[[0,1],[1,1]];fillColor=none;align=center;verticalAlign=bottom;routingCenterY=0.5;snapToPoint=1;recursiveResize=0;autosize=1;treeFolding=1;treeMoving=1;newEdgeStyle={&quot;edgeStyle&quot;:&quot;entityRelationEdgeStyle&quot;,&quot;startArrow&quot;:&quot;none&quot;,&quot;endArrow&quot;:&quot;none&quot;,&quot;segment&quot;:10,&quot;curved&quot;:1};strokeWidth=5;fontSize=20;fontStyle=1" vertex="1" parent="1">
          <mxGeometry x="1273" y="722" width="96" height="28" as="geometry" />
        </mxCell>
        <mxCell id="BQvFcFdzDr9af9RYS4z4-81" value="" style="edgeStyle=entityRelationEdgeStyle;startArrow=none;endArrow=none;segment=10;curved=1;strokeWidth=5;fontSize=28;exitX=1;exitY=1;exitDx=0;exitDy=0;" edge="1" target="BQvFcFdzDr9af9RYS4z4-80" parent="1" source="BQvFcFdzDr9af9RYS4z4-78">
          <mxGeometry relative="1" as="geometry">
            <mxPoint x="1218" y="965" as="sourcePoint" />
          </mxGeometry>
        </mxCell>
        <mxCell id="BQvFcFdzDr9af9RYS4z4-82" value="WALL" style="whiteSpace=wrap;html=1;shape=partialRectangle;top=0;left=0;bottom=1;right=0;points=[[0,1],[1,1]];fillColor=none;align=center;verticalAlign=bottom;routingCenterY=0.5;snapToPoint=1;recursiveResize=0;autosize=1;treeFolding=1;treeMoving=1;newEdgeStyle={&quot;edgeStyle&quot;:&quot;entityRelationEdgeStyle&quot;,&quot;startArrow&quot;:&quot;none&quot;,&quot;endArrow&quot;:&quot;none&quot;,&quot;segment&quot;:10,&quot;curved&quot;:1};strokeWidth=5;fontSize=20;fontStyle=1" vertex="1" parent="1">
          <mxGeometry x="1451" y="707" width="84" height="28" as="geometry" />
        </mxCell>
        <mxCell id="BQvFcFdzDr9af9RYS4z4-83" value="" style="edgeStyle=entityRelationEdgeStyle;startArrow=none;endArrow=none;segment=10;curved=1;strokeWidth=5;fontSize=28;exitX=1;exitY=1;exitDx=0;exitDy=0;" edge="1" target="BQvFcFdzDr9af9RYS4z4-82" parent="1" source="BQvFcFdzDr9af9RYS4z4-80">
          <mxGeometry relative="1" as="geometry">
            <mxPoint x="1368" y="948" as="sourcePoint" />
          </mxGeometry>
        </mxCell>
        <mxCell id="BQvFcFdzDr9af9RYS4z4-84" value="WHITEBOARD" style="whiteSpace=wrap;html=1;shape=partialRectangle;top=0;left=0;bottom=1;right=0;points=[[0,1],[1,1]];fillColor=none;align=center;verticalAlign=bottom;routingCenterY=0.5;snapToPoint=1;recursiveResize=0;autosize=1;treeFolding=1;treeMoving=1;newEdgeStyle={&quot;edgeStyle&quot;:&quot;entityRelationEdgeStyle&quot;,&quot;startArrow&quot;:&quot;none&quot;,&quot;endArrow&quot;:&quot;none&quot;,&quot;segment&quot;:10,&quot;curved&quot;:1};strokeWidth=5;fontSize=20;fontStyle=1" vertex="1" parent="1">
          <mxGeometry x="1450" y="767" width="165" height="28" as="geometry" />
        </mxCell>
        <mxCell id="BQvFcFdzDr9af9RYS4z4-85" value="" style="edgeStyle=entityRelationEdgeStyle;startArrow=none;endArrow=none;segment=10;curved=1;strokeWidth=5;fontSize=28;exitX=1;exitY=1;exitDx=0;exitDy=0;" edge="1" target="BQvFcFdzDr9af9RYS4z4-84" parent="1" source="BQvFcFdzDr9af9RYS4z4-80">
          <mxGeometry relative="1" as="geometry">
            <mxPoint x="1391" y="1026" as="sourcePoint" />
          </mxGeometry>
        </mxCell>
        <mxCell id="BQvFcFdzDr9af9RYS4z4-86" value="MOVE" style="whiteSpace=wrap;html=1;shape=partialRectangle;top=0;left=0;bottom=1;right=0;points=[[0,1],[1,1]];fillColor=none;align=center;verticalAlign=bottom;routingCenterY=0.5;snapToPoint=1;recursiveResize=0;autosize=1;treeFolding=1;treeMoving=1;newEdgeStyle={&quot;edgeStyle&quot;:&quot;entityRelationEdgeStyle&quot;,&quot;startArrow&quot;:&quot;none&quot;,&quot;endArrow&quot;:&quot;none&quot;,&quot;segment&quot;:10,&quot;curved&quot;:1};strokeWidth=5;fontSize=20;fontStyle=1" vertex="1" parent="1">
          <mxGeometry x="1474.0000000000002" y="819" width="86" height="28" as="geometry" />
        </mxCell>
        <mxCell id="BQvFcFdzDr9af9RYS4z4-87" value="" style="edgeStyle=entityRelationEdgeStyle;startArrow=none;endArrow=none;segment=10;curved=1;strokeWidth=5;fontSize=28;exitX=1;exitY=1;exitDx=0;exitDy=0;" edge="1" target="BQvFcFdzDr9af9RYS4z4-86" parent="1" source="BQvFcFdzDr9af9RYS4z4-80">
          <mxGeometry relative="1" as="geometry">
            <mxPoint x="1336" y="1056" as="sourcePoint" />
          </mxGeometry>
        </mxCell>
        <mxCell id="BQvFcFdzDr9af9RYS4z4-88" value="ADJUST" style="whiteSpace=wrap;html=1;shape=partialRectangle;top=0;left=0;bottom=1;right=0;points=[[0,1],[1,1]];fillColor=none;align=center;verticalAlign=bottom;routingCenterY=0.5;snapToPoint=1;recursiveResize=0;autosize=1;treeFolding=1;treeMoving=1;newEdgeStyle={&quot;edgeStyle&quot;:&quot;entityRelationEdgeStyle&quot;,&quot;startArrow&quot;:&quot;none&quot;,&quot;endArrow&quot;:&quot;none&quot;,&quot;segment&quot;:10,&quot;curved&quot;:1};strokeWidth=5;fontSize=20;fontStyle=1" vertex="1" parent="1">
          <mxGeometry x="1463.5000000000002" y="872" width="107" height="28" as="geometry" />
        </mxCell>
        <mxCell id="BQvFcFdzDr9af9RYS4z4-89" value="" style="edgeStyle=entityRelationEdgeStyle;startArrow=none;endArrow=none;segment=10;curved=1;strokeWidth=5;fontSize=28;exitX=1;exitY=1;exitDx=0;exitDy=0;" edge="1" target="BQvFcFdzDr9af9RYS4z4-88" parent="1" source="BQvFcFdzDr9af9RYS4z4-80">
          <mxGeometry relative="1" as="geometry">
            <mxPoint x="1308" y="955.9999999999998" as="sourcePoint" />
          </mxGeometry>
        </mxCell>
        <mxCell id="BQvFcFdzDr9af9RYS4z4-90" value="PICTURES" style="whiteSpace=wrap;html=1;shape=partialRectangle;top=0;left=0;bottom=1;right=0;points=[[0,1],[1,1]];fillColor=none;align=center;verticalAlign=bottom;routingCenterY=0.5;snapToPoint=1;recursiveResize=0;autosize=1;treeFolding=1;treeMoving=1;newEdgeStyle={&quot;edgeStyle&quot;:&quot;entityRelationEdgeStyle&quot;,&quot;startArrow&quot;:&quot;none&quot;,&quot;endArrow&quot;:&quot;none&quot;,&quot;segment&quot;:10,&quot;curved&quot;:1};strokeWidth=5;fontSize=20;fontStyle=1" vertex="1" parent="1">
          <mxGeometry x="1106.9999999999998" y="795" width="128" height="28" as="geometry" />
        </mxCell>
        <mxCell id="BQvFcFdzDr9af9RYS4z4-91" value="" style="edgeStyle=entityRelationEdgeStyle;startArrow=none;endArrow=none;segment=10;curved=1;strokeWidth=5;fontSize=28;exitX=1;exitY=1;exitDx=0;exitDy=0;" edge="1" target="BQvFcFdzDr9af9RYS4z4-90" parent="1" source="BQvFcFdzDr9af9RYS4z4-61">
          <mxGeometry relative="1" as="geometry">
            <mxPoint x="930" y="778" as="sourcePoint" />
          </mxGeometry>
        </mxCell>
        <mxCell id="BQvFcFdzDr9af9RYS4z4-102" value="END" style="whiteSpace=wrap;html=1;shape=partialRectangle;top=0;left=0;bottom=1;right=0;points=[[0,1],[1,1]];fillColor=none;align=center;verticalAlign=bottom;routingCenterY=0.5;snapToPoint=1;recursiveResize=0;autosize=1;treeFolding=1;treeMoving=1;newEdgeStyle={&quot;edgeStyle&quot;:&quot;entityRelationEdgeStyle&quot;,&quot;startArrow&quot;:&quot;none&quot;,&quot;endArrow&quot;:&quot;none&quot;,&quot;segment&quot;:10,&quot;curved&quot;:1};strokeWidth=5;fontSize=20;fontStyle=1" vertex="1" parent="1">
          <mxGeometry x="1269" y="826" width="69" height="28" as="geometry" />
        </mxCell>
        <mxCell id="BQvFcFdzDr9af9RYS4z4-103" value="" style="edgeStyle=entityRelationEdgeStyle;startArrow=none;endArrow=none;segment=10;curved=1;strokeWidth=5;fontSize=20;exitX=0.931;exitY=1.077;exitDx=0;exitDy=0;exitPerimeter=0;" edge="1" target="BQvFcFdzDr9af9RYS4z4-102" parent="1" source="BQvFcFdzDr9af9RYS4z4-90">
          <mxGeometry relative="1" as="geometry">
            <mxPoint x="1296" y="816" as="sourcePoint" />
          </mxGeometry>
        </mxCell>
        <mxCell id="BQvFcFdzDr9af9RYS4z4-104" value="RESULT" style="whiteSpace=wrap;html=1;shape=partialRectangle;top=0;left=0;bottom=1;right=0;points=[[0,1],[1,1]];fillColor=none;align=center;verticalAlign=bottom;routingCenterY=0.5;snapToPoint=1;recursiveResize=0;autosize=1;treeFolding=1;treeMoving=1;newEdgeStyle={&quot;edgeStyle&quot;:&quot;entityRelationEdgeStyle&quot;,&quot;startArrow&quot;:&quot;none&quot;,&quot;endArrow&quot;:&quot;none&quot;,&quot;segment&quot;:10,&quot;curved&quot;:1};strokeWidth=5;fontSize=20;fontStyle=1" vertex="1" parent="1">
          <mxGeometry x="1362.5" y="905" width="106" height="28" as="geometry" />
        </mxCell>
        <mxCell id="BQvFcFdzDr9af9RYS4z4-105" value="" style="edgeStyle=entityRelationEdgeStyle;startArrow=none;endArrow=none;segment=10;curved=1;strokeWidth=5;fontSize=20;exitX=1;exitY=1;exitDx=0;exitDy=0;" edge="1" target="BQvFcFdzDr9af9RYS4z4-104" parent="1" source="BQvFcFdzDr9af9RYS4z4-102">
          <mxGeometry relative="1" as="geometry">
            <mxPoint x="1340.0000000000005" y="900" as="sourcePoint" />
          </mxGeometry>
        </mxCell>
      </root>
    </mxGraphModel>
  </diagram>
</mxfile>
